# xmcd
#
# Track frame offsets: 
#        182
#        14652
#        35850
#        55767
#        73947
#        88545
#        108897
#        124340
#        143300
#        156567
#        173647
#        189325
#        209457
#        223332
#        241215
#        257630
#
# Disc length: 3638 seconds
#
# Revision: 9
# Processed by: cddbd v1.5.2PL0 Copyright (c) Steve Scherf et al.
# Submitted via: ExactAudioCopy v1.0b3
#
DISCID=ec0e3410
DTITLE=Billie Holiday - Billie's Best
DYEAR=1992
DGENRE=Jazz
TTITLE0=What A Little Moonlight Can Do
TTITLE1=A Foggy Day
TTITLE2=Come Rain Or Come Shine
TTITLE3=Comes Love
TTITLE4=He's Funny That Way
TTITLE5=Stars Fell On Alabama
TTITLE6=Gone With the Wind
TTITLE7=They Can't Take That Away From Me
TTITLE8=East Of The Sun (And West Of The Moon)
TTITLE9=Everything I Have Is Yours
TTITLE10=Stormy Blues
TTITLE11=Speak Low
TTITLE12=April In Paris
TTITLE13=I've Got My Love To Keep Me Warm
TTITLE14=Some Other Spring
TTITLE15=All The Way
EXTD=YEAR: 1992 ID3G: 8
EXTT0=
EXTT1=
EXTT2=
EXTT3=
EXTT4=
EXTT5=
EXTT6=
EXTT7=
EXTT8=
EXTT9=
EXTT10=
EXTT11=
EXTT12=
EXTT13=
EXTT14=
EXTT15=
PLAYORDER=
